<?xml version="1.0" encoding="utf-8" standalone="no"?>
<!DOCTYPE svg PUBLIC "-//W3C//DTD SVG 1.1//EN"
  "http://www.w3.org/Graphics/SVG/1.1/DTD/svg11.dtd">
<svg xmlns:xlink="http://www.w3.org/1999/xlink" width="707.286pt" height="614.340259pt" viewBox="0 0 707.286 614.340259" xmlns="http://www.w3.org/2000/svg" version="1.1">
 <metadata>
  <rdf:RDF xmlns:dc="http://purl.org/dc/elements/1.1/" xmlns:cc="http://creativecommons.org/ns#" xmlns:rdf="http://www.w3.org/1999/02/22-rdf-syntax-ns#">
   <cc:Work>
    <dc:type rdf:resource="http://purl.org/dc/dcmitype/StillImage"/>
    <dc:date>2026-01-14T20:55:15.454658</dc:date>
    <dc:format>image/svg+xml</dc:format>
    <dc:creator>
     <cc:Agent>
      <dc:title>Matplotlib v3.10.7, https://matplotlib.org/</dc:title>
     </cc:Agent>
    </dc:creator>
   </cc:Work>
  </rdf:RDF>
 </metadata>
 <defs>
  <style type="text/css">*{stroke-linejoin: round; stroke-linecap: butt}</style>
 </defs>
 <g id="figure_1">
  <g id="patch_1">
   <path d="M 0 614.340259 
L 707.286 614.340259 
L 707.286 0 
L 0 0 
z
" style="fill: #ffffff"/>
  </g>
  <g id="axes_1">
   <g id="patch_2">
    <path d="M 544.42 335.884 
C 544.42 300.610458 537.471881 265.679907 523.973281 233.091403 
C 510.474681 200.5029 490.688113 170.890208 465.745952 145.948048 
C 440.803792 121.005887 411.1911 101.219319 378.602597 87.720719 
C 346.014093 74.222119 311.083542 67.274 275.81 67.274 
C 240.536458 67.274 205.605907 74.222119 173.017403 87.720719 
C 140.4289 101.219319 110.816208 121.005887 85.874048 145.948048 
C 60.931887 170.890208 41.145319 200.5029 27.646719 233.091403 
C 14.148119 265.679907 7.2 300.610458 7.2 335.884 
C 7.2 371.157542 14.148119 406.088093 27.646719 438.676597 
C 41.145319 471.2651 60.931887 500.877792 85.874048 525.819952 
C 110.816208 550.762113 140.4289 570.548681 173.017403 584.047281 
C 205.605907 597.545881 240.536458 604.494 275.81 604.494 
C 311.083542 604.494 346.014093 597.545881 378.602597 584.047281 
C 411.1911 570.548681 440.803792 550.762113 465.745952 525.819952 
C 490.688113 500.877792 510.474681 471.2651 523.973281 438.676597 
C 537.471881 406.088093 544.42 371.157542 544.42 335.884 
M 275.81 335.884 
C 275.81 335.884 275.81 335.884 275.81 335.884 
C 275.81 335.884 275.81 335.884 275.81 335.884 
C 275.81 335.884 275.81 335.884 275.81 335.884 
C 275.81 335.884 275.81 335.884 275.81 335.884 
C 275.81 335.884 275.81 335.884 275.81 335.884 
C 275.81 335.884 275.81 335.884 275.81 335.884 
C 275.81 335.884 275.81 335.884 275.81 335.884 
C 275.81 335.884 275.81 335.884 275.81 335.884 
C 275.81 335.884 275.81 335.884 275.81 335.884 
C 275.81 335.884 275.81 335.884 275.81 335.884 
C 275.81 335.884 275.81 335.884 275.81 335.884 
C 275.81 335.884 275.81 335.884 275.81 335.884 
C 275.81 335.884 275.81 335.884 275.81 335.884 
C 275.81 335.884 275.81 335.884 275.81 335.884 
C 275.81 335.884 275.81 335.884 275.81 335.884 
C 275.81 335.884 275.81 335.884 275.81 335.884 
z
" style="fill: #ffffff"/>
   </g>
   <g id="matplotlib.axis_1">
    <g id="xtick_1">
     <g id="line2d_1">
      <path d="M 275.81 335.884 
L 544.42 335.884 
" clip-path="url(#pa40705dd06)" style="fill: none; stroke: #cccccc; stroke-width: 0.8; stroke-linecap: round"/>
     </g>
     <g id="text_1">
      <!-- Recall@5 -->
      <g style="fill: #262626" transform="translate(524.335938 339.19525) scale(0.12 -0.12)">
       <defs>
        <path id="DejaVuSans-Bold-52" d="M 2297 2597 
Q 2675 2597 2839 2737 
Q 3003 2878 3003 3200 
Q 3003 3519 2839 3656 
Q 2675 3794 2297 3794 
L 1791 3794 
L 1791 2597 
L 2297 2597 
z
M 1791 1766 
L 1791 0 
L 588 0 
L 588 4666 
L 2425 4666 
Q 3347 4666 3776 4356 
Q 4206 4047 4206 3378 
Q 4206 2916 3982 2619 
Q 3759 2322 3309 2181 
Q 3556 2125 3751 1926 
Q 3947 1728 4147 1325 
L 4800 0 
L 3519 0 
L 2950 1159 
Q 2778 1509 2601 1637 
Q 2425 1766 2131 1766 
L 1791 1766 
z
" transform="scale(0.015625)"/>
        <path id="DejaVuSans-Bold-65" d="M 4031 1759 
L 4031 1441 
L 1416 1441 
Q 1456 1047 1700 850 
Q 1944 653 2381 653 
Q 2734 653 3104 758 
Q 3475 863 3866 1075 
L 3866 213 
Q 3469 63 3072 -14 
Q 2675 -91 2278 -91 
Q 1328 -91 801 392 
Q 275 875 275 1747 
Q 275 2603 792 3093 
Q 1309 3584 2216 3584 
Q 3041 3584 3536 3087 
Q 4031 2591 4031 1759 
z
M 2881 2131 
Q 2881 2450 2695 2645 
Q 2509 2841 2209 2841 
Q 1884 2841 1681 2658 
Q 1478 2475 1428 2131 
L 2881 2131 
z
" transform="scale(0.015625)"/>
        <path id="DejaVuSans-Bold-63" d="M 3366 3391 
L 3366 2478 
Q 3138 2634 2908 2709 
Q 2678 2784 2431 2784 
Q 1963 2784 1702 2511 
Q 1441 2238 1441 1747 
Q 1441 1256 1702 982 
Q 1963 709 2431 709 
Q 2694 709 2930 787 
Q 3166 866 3366 1019 
L 3366 103 
Q 3103 6 2833 -42 
Q 2563 -91 2291 -91 
Q 1344 -91 809 395 
Q 275 881 275 1747 
Q 275 2613 809 3098 
Q 1344 3584 2291 3584 
Q 2566 3584 2833 3536 
Q 3100 3488 3366 3391 
z
" transform="scale(0.015625)"/>
        <path id="DejaVuSans-Bold-61" d="M 2106 1575 
Q 1756 1575 1579 1456 
Q 1403 1338 1403 1106 
Q 1403 894 1545 773 
Q 1688 653 1941 653 
Q 2256 653 2472 879 
Q 2688 1106 2688 1447 
L 2688 1575 
L 2106 1575 
z
M 3816 1997 
L 3816 0 
L 2688 0 
L 2688 519 
Q 2463 200 2181 54 
Q 1900 -91 1497 -91 
Q 953 -91 614 226 
Q 275 544 275 1050 
Q 275 1666 698 1953 
Q 1122 2241 2028 2241 
L 2688 2241 
L 2688 2328 
Q 2688 2594 2478 2717 
Q 2269 2841 1825 2841 
Q 1466 2841 1156 2769 
Q 847 2697 581 2553 
L 581 3406 
Q 941 3494 1303 3539 
Q 1666 3584 2028 3584 
Q 2975 3584 3395 3211 
Q 3816 2838 3816 1997 
z
" transform="scale(0.015625)"/>
        <path id="DejaVuSans-Bold-6c" d="M 538 4863 
L 1656 4863 
L 1656 0 
L 538 0 
L 538 4863 
z
" transform="scale(0.015625)"/>
        <path id="DejaVuSans-Bold-40" d="M 2597 1684 
Q 2597 1300 2761 1078 
Q 2925 856 3206 856 
Q 3484 856 3650 1079 
Q 3816 1303 3816 1684 
Q 3816 2063 3648 2283 
Q 3481 2503 3200 2503 
Q 2925 2503 2761 2283 
Q 2597 2063 2597 1684 
z
M 3878 744 
Q 3784 522 3576 398 
Q 3369 275 3091 275 
Q 2553 275 2217 664 
Q 1881 1053 1881 1678 
Q 1881 2303 2218 2693 
Q 2556 3084 3091 3084 
Q 3369 3084 3576 2959 
Q 3784 2834 3878 2613 
L 3878 3022 
L 4531 3022 
L 4531 856 
Q 4919 916 5141 1230 
Q 5363 1544 5363 2034 
Q 5363 2347 5272 2620 
Q 5181 2894 4997 3122 
Q 4700 3503 4254 3709 
Q 3809 3916 3291 3916 
Q 2928 3916 2597 3820 
Q 2266 3725 1984 3541 
Q 1522 3234 1264 2748 
Q 1006 2263 1006 1697 
Q 1006 1231 1173 823 
Q 1341 416 1656 103 
Q 1969 -203 2373 -364 
Q 2778 -525 3238 -525 
Q 3631 -525 4025 -378 
Q 4419 -231 4697 19 
L 5031 -488 
Q 4641 -791 4180 -952 
Q 3719 -1113 3244 -1113 
Q 2666 -1113 2153 -908 
Q 1641 -703 1241 -313 
Q 841 78 631 592 
Q 422 1106 422 1697 
Q 422 2266 634 2781 
Q 847 3297 1241 3688 
Q 1634 4075 2157 4287 
Q 2681 4500 3244 4500 
Q 3944 4500 4516 4233 
Q 5088 3966 5472 3463 
Q 5706 3156 5826 2798 
Q 5947 2441 5947 2047 
Q 5947 1200 5437 731 
Q 4928 263 4000 263 
L 3878 263 
L 3878 744 
z
" transform="scale(0.015625)"/>
        <path id="DejaVuSans-Bold-35" d="M 678 4666 
L 3669 4666 
L 3669 3781 
L 1638 3781 
L 1638 3059 
Q 1775 3097 1914 3117 
Q 2053 3138 2203 3138 
Q 3056 3138 3531 2711 
Q 4006 2284 4006 1522 
Q 4006 766 3489 337 
Q 2972 -91 2053 -91 
Q 1656 -91 1267 -14 
Q 878 63 494 219 
L 494 1166 
Q 875 947 1217 837 
Q 1559 728 1863 728 
Q 2300 728 2551 942 
Q 2803 1156 2803 1522 
Q 2803 1891 2551 2103 
Q 2300 2316 1863 2316 
Q 1603 2316 1309 2248 
Q 1016 2181 678 2041 
L 678 4666 
z
" transform="scale(0.015625)"/>
       </defs>
       <use xlink:href="#DejaVuSans-Bold-52"/>
       <use xlink:href="#DejaVuSans-Bold-65" transform="translate(77.001953 0)"/>
       <use xlink:href="#DejaVuSans-Bold-63" transform="translate(144.824219 0)"/>
       <use xlink:href="#DejaVuSans-Bold-61" transform="translate(204.101562 0)"/>
       <use xlink:href="#DejaVuSans-Bold-6c" transform="translate(271.582031 0)"/>
       <use xlink:href="#DejaVuSans-Bold-6c" transform="translate(305.859375 0)"/>
       <use xlink:href="#DejaVuSans-Bold-40" transform="translate(340.136719 0)"/>
       <use xlink:href="#DejaVuSans-Bold-35" transform="translate(440.136719 0)"/>
      </g>
     </g>
    </g>
    <g id="xtick_2">
     <g id="line2d_2">
      <path d="M 275.81 335.884 
L 358.815055 80.420709 
" clip-path="url(#pa40705dd06)" style="fill: none; stroke: #cccccc; stroke-width: 0.8; stroke-linecap: round"/>
     </g>
     <g id="text_2">
      <!-- Recall@10 -->
      <g style="fill: #262626" transform="translate(327.300983 73.745866) scale(0.12 -0.12)">
       <defs>
        <path id="DejaVuSans-Bold-31" d="M 750 831 
L 1813 831 
L 1813 3847 
L 722 3622 
L 722 4441 
L 1806 4666 
L 2950 4666 
L 2950 831 
L 4013 831 
L 4013 0 
L 750 0 
L 750 831 
z
" transform="scale(0.015625)"/>
        <path id="DejaVuSans-Bold-30" d="M 2944 2338 
Q 2944 3213 2780 3570 
Q 2616 3928 2228 3928 
Q 1841 3928 1675 3570 
Q 1509 3213 1509 2338 
Q 1509 1453 1675 1090 
Q 1841 728 2228 728 
Q 2613 728 2778 1090 
Q 2944 1453 2944 2338 
z
M 4147 2328 
Q 4147 1169 3647 539 
Q 3147 -91 2228 -91 
Q 1306 -91 806 539 
Q 306 1169 306 2328 
Q 306 3491 806 4120 
Q 1306 4750 2228 4750 
Q 3147 4750 3647 4120 
Q 4147 3491 4147 2328 
z
" transform="scale(0.015625)"/>
       </defs>
       <use xlink:href="#DejaVuSans-Bold-52"/>
       <use xlink:href="#DejaVuSans-Bold-65" transform="translate(77.001953 0)"/>
       <use xlink:href="#DejaVuSans-Bold-63" transform="translate(144.824219 0)"/>
       <use xlink:href="#DejaVuSans-Bold-61" transform="translate(204.101562 0)"/>
       <use xlink:href="#DejaVuSans-Bold-6c" transform="translate(271.582031 0)"/>
       <use xlink:href="#DejaVuSans-Bold-6c" transform="translate(305.859375 0)"/>
       <use xlink:href="#DejaVuSans-Bold-40" transform="translate(340.136719 0)"/>
       <use xlink:href="#DejaVuSans-Bold-31" transform="translate(440.136719 0)"/>
       <use xlink:href="#DejaVuSans-Bold-30" transform="translate(509.716797 0)"/>
      </g>
     </g>
    </g>
    <g id="xtick_3">
     <g id="line2d_3">
      <path d="M 275.81 335.884 
L 58.499945 177.999003 
" clip-path="url(#pa40705dd06)" style="fill: none; stroke: #cccccc; stroke-width: 0.8; stroke-linecap: round"/>
     </g>
     <g id="text_3">
      <!-- MRR@5 -->
      <g style="fill: #262626" transform="translate(24.619642 175.138508) scale(0.12 -0.12)">
       <defs>
        <path id="DejaVuSans-Bold-4d" d="M 588 4666 
L 2119 4666 
L 3181 2169 
L 4250 4666 
L 5778 4666 
L 5778 0 
L 4641 0 
L 4641 3413 
L 3566 897 
L 2803 897 
L 1728 3413 
L 1728 0 
L 588 0 
L 588 4666 
z
" transform="scale(0.015625)"/>
       </defs>
       <use xlink:href="#DejaVuSans-Bold-4d"/>
       <use xlink:href="#DejaVuSans-Bold-52" transform="translate(99.511719 0)"/>
       <use xlink:href="#DejaVuSans-Bold-52" transform="translate(176.513672 0)"/>
       <use xlink:href="#DejaVuSans-Bold-40" transform="translate(253.515625 0)"/>
       <use xlink:href="#DejaVuSans-Bold-35" transform="translate(353.515625 0)"/>
      </g>
     </g>
    </g>
    <g id="xtick_4">
     <g id="line2d_4">
      <path d="M 275.81 335.884 
L 58.499945 493.768997 
" clip-path="url(#pa40705dd06)" style="fill: none; stroke: #cccccc; stroke-width: 0.8; stroke-linecap: round"/>
     </g>
     <g id="text_4">
      <!-- nDCG@5 -->
      <g style="fill: #262626" transform="translate(21.250267 503.251992) scale(0.12 -0.12)">
       <defs>
        <path id="DejaVuSans-Bold-6e" d="M 4056 2131 
L 4056 0 
L 2931 0 
L 2931 347 
L 2931 1631 
Q 2931 2084 2911 2256 
Q 2891 2428 2841 2509 
Q 2775 2619 2662 2680 
Q 2550 2741 2406 2741 
Q 2056 2741 1856 2470 
Q 1656 2200 1656 1722 
L 1656 0 
L 538 0 
L 538 3500 
L 1656 3500 
L 1656 2988 
Q 1909 3294 2193 3439 
Q 2478 3584 2822 3584 
Q 3428 3584 3742 3212 
Q 4056 2841 4056 2131 
z
" transform="scale(0.015625)"/>
        <path id="DejaVuSans-Bold-44" d="M 1791 3756 
L 1791 909 
L 2222 909 
Q 2959 909 3348 1275 
Q 3738 1641 3738 2338 
Q 3738 3031 3350 3393 
Q 2963 3756 2222 3756 
L 1791 3756 
z
M 588 4666 
L 1856 4666 
Q 2919 4666 3439 4514 
Q 3959 4363 4331 4000 
Q 4659 3684 4818 3271 
Q 4978 2859 4978 2338 
Q 4978 1809 4818 1395 
Q 4659 981 4331 666 
Q 3956 303 3431 151 
Q 2906 0 1856 0 
L 588 0 
L 588 4666 
z
" transform="scale(0.015625)"/>
        <path id="DejaVuSans-Bold-43" d="M 4288 256 
Q 3956 84 3597 -3 
Q 3238 -91 2847 -91 
Q 1681 -91 1000 561 
Q 319 1213 319 2328 
Q 319 3447 1000 4098 
Q 1681 4750 2847 4750 
Q 3238 4750 3597 4662 
Q 3956 4575 4288 4403 
L 4288 3438 
Q 3953 3666 3628 3772 
Q 3303 3878 2944 3878 
Q 2300 3878 1931 3465 
Q 1563 3053 1563 2328 
Q 1563 1606 1931 1193 
Q 2300 781 2944 781 
Q 3303 781 3628 887 
Q 3953 994 4288 1222 
L 4288 256 
z
" transform="scale(0.015625)"/>
        <path id="DejaVuSans-Bold-47" d="M 4781 347 
Q 4331 128 3847 18 
Q 3363 -91 2847 -91 
Q 1681 -91 1000 561 
Q 319 1213 319 2328 
Q 319 3456 1012 4103 
Q 1706 4750 2913 4750 
Q 3378 4750 3804 4662 
Q 4231 4575 4609 4403 
L 4609 3438 
Q 4219 3659 3833 3768 
Q 3447 3878 3059 3878 
Q 2341 3878 1952 3476 
Q 1563 3075 1563 2328 
Q 1563 1588 1938 1184 
Q 2313 781 3003 781 
Q 3191 781 3352 804 
Q 3513 828 3641 878 
L 3641 1784 
L 2906 1784 
L 2906 2591 
L 4781 2591 
L 4781 347 
z
" transform="scale(0.015625)"/>
       </defs>
       <use xlink:href="#DejaVuSans-Bold-6e"/>
       <use xlink:href="#DejaVuSans-Bold-44" transform="translate(71.191406 0)"/>
       <use xlink:href="#DejaVuSans-Bold-43" transform="translate(154.199219 0)"/>
       <use xlink:href="#DejaVuSans-Bold-47" transform="translate(227.587891 0)"/>
       <use xlink:href="#DejaVuSans-Bold-40" transform="translate(309.667969 0)"/>
       <use xlink:href="#DejaVuSans-Bold-35" transform="translate(409.667969 0)"/>
      </g>
     </g>
    </g>
    <g id="xtick_5">
     <g id="line2d_5">
      <path d="M 275.81 335.884 
L 358.815055 591.347291 
" clip-path="url(#pa40705dd06)" style="fill: none; stroke: #cccccc; stroke-width: 0.8; stroke-linecap: round"/>
     </g>
     <g id="text_5">
      <!-- nDCG@10 -->
      <g style="fill: #262626" transform="translate(329.130046 604.644634) scale(0.12 -0.12)">
       <use xlink:href="#DejaVuSans-Bold-6e"/>
       <use xlink:href="#DejaVuSans-Bold-44" transform="translate(71.191406 0)"/>
       <use xlink:href="#DejaVuSans-Bold-43" transform="translate(154.199219 0)"/>
       <use xlink:href="#DejaVuSans-Bold-47" transform="translate(227.587891 0)"/>
       <use xlink:href="#DejaVuSans-Bold-40" transform="translate(309.667969 0)"/>
       <use xlink:href="#DejaVuSans-Bold-31" transform="translate(409.667969 0)"/>
       <use xlink:href="#DejaVuSans-Bold-30" transform="translate(479.248047 0)"/>
      </g>
     </g>
    </g>
   </g>
   <g id="matplotlib.axis_2">
    <g id="ytick_1">
     <g id="line2d_6">
      <path d="M 320.578333 335.884 
C 320.578333 330.005076 319.420314 324.183318 317.170547 318.751901 
C 314.92078 313.320483 311.623019 308.385035 307.465992 304.228008 
C 303.308965 300.070981 298.373517 296.77322 292.942099 294.523453 
C 287.510682 292.273686 281.688924 291.115667 275.81 291.115667 
C 269.931076 291.115667 264.109318 292.273686 258.677901 294.523453 
C 253.246483 296.77322 248.311035 300.070981 244.154008 304.228008 
C 239.996981 308.385035 236.69922 313.320483 234.449453 318.751901 
C 232.199686 324.183318 231.041667 330.005076 231.041667 335.884 
C 231.041667 341.762924 232.199686 347.584682 234.449453 353.016099 
C 236.69922 358.447517 239.996981 363.382965 244.154008 367.539992 
C 248.311035 371.697019 253.246483 374.99478 258.677901 377.244547 
C 264.109318 379.494314 269.931076 380.652333 275.81 380.652333 
C 281.688924 380.652333 287.510682 379.494314 292.942099 377.244547 
C 298.373517 374.99478 303.308965 371.697019 307.465992 367.539992 
C 311.623019 363.382965 314.92078 358.447517 317.170547 353.016099 
C 319.420314 347.584682 320.578333 341.762924 320.578333 335.884 
" clip-path="url(#pa40705dd06)" style="fill: none; stroke: #cccccc; stroke-width: 0.8; stroke-linecap: round"/>
     </g>
     <g id="text_6">
      <!-- 50% -->
      <g style="fill: #262626" transform="translate(317.170547 316.880182) scale(0.09 -0.09)">
       <defs>
        <path id="DejaVuSans-35" d="M 691 4666 
L 3169 4666 
L 3169 4134 
L 1269 4134 
L 1269 2991 
Q 1406 3038 1543 3061 
Q 1681 3084 1819 3084 
Q 2600 3084 3056 2656 
Q 3513 2228 3513 1497 
Q 3513 744 3044 326 
Q 2575 -91 1722 -91 
Q 1428 -91 1123 -41 
Q 819 9 494 109 
L 494 744 
Q 775 591 1075 516 
Q 1375 441 1709 441 
Q 2250 441 2565 725 
Q 2881 1009 2881 1497 
Q 2881 1984 2565 2268 
Q 2250 2553 1709 2553 
Q 1456 2553 1204 2497 
Q 953 2441 691 2322 
L 691 4666 
z
" transform="scale(0.015625)"/>
        <path id="DejaVuSans-30" d="M 2034 4250 
Q 1547 4250 1301 3770 
Q 1056 3291 1056 2328 
Q 1056 1369 1301 889 
Q 1547 409 2034 409 
Q 2525 409 2770 889 
Q 3016 1369 3016 2328 
Q 3016 3291 2770 3770 
Q 2525 4250 2034 4250 
z
M 2034 4750 
Q 2819 4750 3233 4129 
Q 3647 3509 3647 2328 
Q 3647 1150 3233 529 
Q 2819 -91 2034 -91 
Q 1250 -91 836 529 
Q 422 1150 422 2328 
Q 422 3509 836 4129 
Q 1250 4750 2034 4750 
z
" transform="scale(0.015625)"/>
        <path id="DejaVuSans-25" d="M 4653 2053 
Q 4381 2053 4226 1822 
Q 4072 1591 4072 1178 
Q 4072 772 4226 539 
Q 4381 306 4653 306 
Q 4919 306 5073 539 
Q 5228 772 5228 1178 
Q 5228 1588 5073 1820 
Q 4919 2053 4653 2053 
z
M 4653 2450 
Q 5147 2450 5437 2106 
Q 5728 1763 5728 1178 
Q 5728 594 5436 251 
Q 5144 -91 4653 -91 
Q 4153 -91 3862 251 
Q 3572 594 3572 1178 
Q 3572 1766 3864 2108 
Q 4156 2450 4653 2450 
z
M 1428 4353 
Q 1159 4353 1004 4120 
Q 850 3888 850 3481 
Q 850 3069 1003 2837 
Q 1156 2606 1428 2606 
Q 1700 2606 1854 2837 
Q 2009 3069 2009 3481 
Q 2009 3884 1853 4118 
Q 1697 4353 1428 4353 
z
M 4250 4750 
L 4750 4750 
L 1831 -91 
L 1331 -91 
L 4250 4750 
z
M 1428 4750 
Q 1922 4750 2215 4408 
Q 2509 4066 2509 3481 
Q 2509 2891 2217 2550 
Q 1925 2209 1428 2209 
Q 931 2209 642 2551 
Q 353 2894 353 3481 
Q 353 4063 643 4406 
Q 934 4750 1428 4750 
z
" transform="scale(0.015625)"/>
       </defs>
       <use xlink:href="#DejaVuSans-35"/>
       <use xlink:href="#DejaVuSans-30" transform="translate(63.623047 0)"/>
       <use xlink:href="#DejaVuSans-25" transform="translate(127.246094 0)"/>
      </g>
     </g>
    </g>
    <g id="ytick_2">
     <g id="line2d_7">
      <path d="M 365.346667 335.884 
C 365.346667 324.126153 363.030627 312.482636 358.531094 301.619801 
C 354.03156 290.756967 347.436038 280.886069 339.121984 272.572016 
C 330.807931 264.257962 320.937033 257.66244 310.074199 253.162906 
C 299.211364 248.663373 287.567847 246.347333 275.81 246.347333 
C 264.052153 246.347333 252.408636 248.663373 241.545801 253.162906 
C 230.682967 257.66244 220.812069 264.257962 212.498016 272.572016 
C 204.183962 280.886069 197.58844 290.756967 193.088906 301.619801 
C 188.589373 312.482636 186.273333 324.126153 186.273333 335.884 
C 186.273333 347.641847 188.589373 359.285364 193.088906 370.148199 
C 197.58844 381.011033 204.183962 390.881931 212.498016 399.195984 
C 220.812069 407.510038 230.682967 414.10556 241.545801 418.605094 
C 252.408636 423.104627 264.052153 425.420667 275.81 425.420667 
C 287.567847 425.420667 299.211364 423.104627 310.074199 418.605094 
C 320.937033 414.10556 330.807931 407.510038 339.121984 399.195984 
C 347.436038 390.881931 354.03156 381.011033 358.531094 370.148199 
C 363.030627 359.285364 365.346667 347.641847 365.346667 335.884 
" clip-path="url(#pa40705dd06)" style="fill: none; stroke: #cccccc; stroke-width: 0.8; stroke-linecap: round"/>
     </g>
     <g id="text_7">
      <!-- 60% -->
      <g style="fill: #262626" transform="translate(358.531094 299.748082) scale(0.09 -0.09)">
       <defs>
        <path id="DejaVuSans-36" d="M 2113 2584 
Q 1688 2584 1439 2293 
Q 1191 2003 1191 1497 
Q 1191 994 1439 701 
Q 1688 409 2113 409 
Q 2538 409 2786 701 
Q 3034 994 3034 1497 
Q 3034 2003 2786 2293 
Q 2538 2584 2113 2584 
z
M 3366 4563 
L 3366 3988 
Q 3128 4100 2886 4159 
Q 2644 4219 2406 4219 
Q 1781 4219 1451 3797 
Q 1122 3375 1075 2522 
Q 1259 2794 1537 2939 
Q 1816 3084 2150 3084 
Q 2853 3084 3261 2657 
Q 3669 2231 3669 1497 
Q 3669 778 3244 343 
Q 2819 -91 2113 -91 
Q 1303 -91 875 529 
Q 447 1150 447 2328 
Q 447 3434 972 4092 
Q 1497 4750 2381 4750 
Q 2619 4750 2861 4703 
Q 3103 4656 3366 4563 
z
" transform="scale(0.015625)"/>
       </defs>
       <use xlink:href="#DejaVuSans-36"/>
       <use xlink:href="#DejaVuSans-30" transform="translate(63.623047 0)"/>
       <use xlink:href="#DejaVuSans-25" transform="translate(127.246094 0)"/>
      </g>
     </g>
    </g>
    <g id="ytick_3">
     <g id="line2d_8">
      <path d="M 410.115 335.884 
C 410.115 318.247229 406.640941 300.781953 399.891641 284.487702 
C 393.142341 268.19345 383.249057 253.387104 370.777976 240.916024 
C 358.306896 228.444943 343.50055 218.551659 327.206298 211.802359 
C 310.912047 205.053059 293.446771 201.579 275.81 201.579 
C 258.173229 201.579 240.707953 205.053059 224.413702 211.802359 
C 208.11945 218.551659 193.313104 228.444943 180.842024 240.916024 
C 168.370943 253.387104 158.477659 268.19345 151.728359 284.487702 
C 144.979059 300.781953 141.505 318.247229 141.505 335.884 
C 141.505 353.520771 144.979059 370.986047 151.728359 387.280298 
C 158.477659 403.57455 168.370943 418.380896 180.842024 430.851976 
C 193.313104 443.323057 208.11945 453.216341 224.413702 459.965641 
C 240.707953 466.714941 258.173229 470.189 275.81 470.189 
C 293.446771 470.189 310.912047 466.714941 327.206298 459.965641 
C 343.50055 453.216341 358.306896 443.323057 370.777976 430.851976 
C 383.249057 418.380896 393.142341 403.57455 399.891641 387.280298 
C 406.640941 370.986047 410.115 353.520771 410.115 335.884 
" clip-path="url(#pa40705dd06)" style="fill: none; stroke: #cccccc; stroke-width: 0.8; stroke-linecap: round"/>
     </g>
     <g id="text_8">
      <!-- 70% -->
      <g style="fill: #262626" transform="translate(399.891641 282.615983) scale(0.09 -0.09)">
       <defs>
        <path id="DejaVuSans-37" d="M 525 4666 
L 3525 4666 
L 3525 4397 
L 1831 0 
L 1172 0 
L 2766 4134 
L 525 4134 
L 525 4666 
z
" transform="scale(0.015625)"/>
       </defs>
       <use xlink:href="#DejaVuSans-37"/>
       <use xlink:href="#DejaVuSans-30" transform="translate(63.623047 0)"/>
       <use xlink:href="#DejaVuSans-25" transform="translate(127.246094 0)"/>
      </g>
     </g>
    </g>
    <g id="ytick_4">
     <g id="line2d_9">
      <path d="M 454.883333 335.884 
C 454.883333 312.368305 450.251254 289.081271 441.252187 267.355602 
C 432.253121 245.629933 419.062075 225.888139 402.433968 209.260032 
C 385.805861 192.631925 366.064067 179.440879 344.338398 170.441813 
C 322.612729 161.442746 299.325695 156.810667 275.81 156.810667 
C 252.294305 156.810667 229.007271 161.442746 207.281602 170.441813 
C 185.555933 179.440879 165.814139 192.631925 149.186032 209.260032 
C 132.557925 225.888139 119.366879 245.629933 110.367813 267.355602 
C 101.368746 289.081271 96.736667 312.368305 96.736667 335.884 
C 96.736667 359.399695 101.368746 382.686729 110.367813 404.412398 
C 119.366879 426.138067 132.557925 445.879861 149.186032 462.507968 
C 165.814139 479.136075 185.555933 492.327121 207.281602 501.326187 
C 229.007271 510.325254 252.294305 514.957333 275.81 514.957333 
C 299.325695 514.957333 322.612729 510.325254 344.338398 501.326187 
C 366.064067 492.327121 385.805861 479.136075 402.433968 462.507968 
C 419.062075 445.879861 432.253121 426.138067 441.252187 404.412398 
C 450.251254 382.686729 454.883333 359.399695 454.883333 335.884 
" clip-path="url(#pa40705dd06)" style="fill: none; stroke: #cccccc; stroke-width: 0.8; stroke-linecap: round"/>
     </g>
     <g id="text_9">
      <!-- 80% -->
      <g style="fill: #262626" transform="translate(441.252187 265.483883) scale(0.09 -0.09)">
       <defs>
        <path id="DejaVuSans-38" d="M 2034 2216 
Q 1584 2216 1326 1975 
Q 1069 1734 1069 1313 
Q 1069 891 1326 650 
Q 1584 409 2034 409 
Q 2484 409 2743 651 
Q 3003 894 3003 1313 
Q 3003 1734 2745 1975 
Q 2488 2216 2034 2216 
z
M 1403 2484 
Q 997 2584 770 2862 
Q 544 3141 544 3541 
Q 544 4100 942 4425 
Q 1341 4750 2034 4750 
Q 2731 4750 3128 4425 
Q 3525 4100 3525 3541 
Q 3525 3141 3298 2862 
Q 3072 2584 2669 2484 
Q 3125 2378 3379 2068 
Q 3634 1759 3634 1313 
Q 3634 634 3220 271 
Q 2806 -91 2034 -91 
Q 1263 -91 848 271 
Q 434 634 434 1313 
Q 434 1759 690 2068 
Q 947 2378 1403 2484 
z
M 1172 3481 
Q 1172 3119 1398 2916 
Q 1625 2713 2034 2713 
Q 2441 2713 2670 2916 
Q 2900 3119 2900 3481 
Q 2900 3844 2670 4047 
Q 2441 4250 2034 4250 
Q 1625 4250 1398 4047 
Q 1172 3844 1172 3481 
z
" transform="scale(0.015625)"/>
       </defs>
       <use xlink:href="#DejaVuSans-38"/>
       <use xlink:href="#DejaVuSans-30" transform="translate(63.623047 0)"/>
       <use xlink:href="#DejaVuSans-25" transform="translate(127.246094 0)"/>
      </g>
     </g>
    </g>
    <g id="ytick_5">
     <g id="line2d_10">
      <path d="M 499.651667 335.884 
C 499.651667 306.489382 493.861568 277.380589 482.612734 250.223503 
C 471.363901 223.066416 454.875094 198.389174 434.08996 177.60404 
C 413.304826 156.818906 388.627584 140.330099 361.470497 129.081266 
C 334.313411 117.832432 305.204618 112.042333 275.81 112.042333 
C 246.415382 112.042333 217.306589 117.832432 190.149503 129.081266 
C 162.992416 140.330099 138.315174 156.818906 117.53004 177.60404 
C 96.744906 198.389174 80.256099 223.066416 69.007266 250.223503 
C 57.758432 277.380589 51.968333 306.489382 51.968333 335.884 
C 51.968333 365.278618 57.758432 394.387411 69.007266 421.544497 
C 80.256099 448.701584 96.744906 473.378826 117.53004 494.16396 
C 138.315174 514.949094 162.992416 531.437901 190.149503 542.686734 
C 217.306589 553.935568 246.415382 559.725667 275.81 559.725667 
C 305.204618 559.725667 334.313411 553.935568 361.470497 542.686734 
C 388.627584 531.437901 413.304826 514.949094 434.08996 494.16396 
C 454.875094 473.378826 471.363901 448.701584 482.612734 421.544497 
C 493.861568 394.387411 499.651667 365.278618 499.651667 335.884 
" clip-path="url(#pa40705dd06)" style="fill: none; stroke: #cccccc; stroke-width: 0.8; stroke-linecap: round"/>
     </g>
     <g id="text_10">
      <!-- 90% -->
      <g style="fill: #262626" transform="translate(482.612734 248.351784) scale(0.09 -0.09)">
       <defs>
        <path id="DejaVuSans-39" d="M 703 97 
L 703 672 
Q 941 559 1184 500 
Q 1428 441 1663 441 
Q 2288 441 2617 861 
Q 2947 1281 2994 2138 
Q 2813 1869 2534 1725 
Q 2256 1581 1919 1581 
Q 1219 1581 811 2004 
Q 403 2428 403 3163 
Q 403 3881 828 4315 
Q 1253 4750 1959 4750 
Q 2769 4750 3195 4129 
Q 3622 3509 3622 2328 
Q 3622 1225 3098 567 
Q 2575 -91 1691 -91 
Q 1453 -91 1209 -44 
Q 966 3 703 97 
z
M 1959 2075 
Q 2384 2075 2632 2365 
Q 2881 2656 2881 3163 
Q 2881 3666 2632 3958 
Q 2384 4250 1959 4250 
Q 1534 4250 1286 3958 
Q 1038 3666 1038 3163 
Q 1038 2656 1286 2365 
Q 1534 2075 1959 2075 
z
" transform="scale(0.015625)"/>
       </defs>
       <use xlink:href="#DejaVuSans-39"/>
       <use xlink:href="#DejaVuSans-30" transform="translate(63.623047 0)"/>
       <use xlink:href="#DejaVuSans-25" transform="translate(127.246094 0)"/>
      </g>
     </g>
    </g>
    <g id="ytick_6">
     <g id="line2d_11">
      <path d="M 544.42 335.884 
C 544.42 300.610458 537.471881 265.679907 523.973281 233.091403 
C 510.474681 200.5029 490.688113 170.890208 465.745952 145.948048 
C 440.803792 121.005887 411.1911 101.219319 378.602597 87.720719 
C 346.014093 74.222119 311.083542 67.274 275.81 67.274 
C 240.536458 67.274 205.605907 74.222119 173.017403 87.720719 
C 140.4289 101.219319 110.816208 121.005887 85.874048 145.948048 
C 60.931887 170.890208 41.145319 200.5029 27.646719 233.091403 
C 14.148119 265.679907 7.2 300.610458 7.2 335.884 
C 7.2 371.157542 14.148119 406.088093 27.646719 438.676597 
C 41.145319 471.2651 60.931887 500.877792 85.874048 525.819952 
C 110.816208 550.762113 140.4289 570.548681 173.017403 584.047281 
C 205.605907 597.545881 240.536458 604.494 275.81 604.494 
C 311.083542 604.494 346.014093 597.545881 378.602597 584.047281 
C 411.1911 570.548681 440.803792 550.762113 465.745952 525.819952 
C 490.688113 500.877792 510.474681 471.2651 523.973281 438.676597 
C 537.471881 406.088093 544.42 371.157542 544.42 335.884 
" clip-path="url(#pa40705dd06)" style="fill: none; stroke: #cccccc; stroke-width: 0.8; stroke-linecap: round"/>
     </g>
     <g id="text_11">
      <!-- 100% -->
      <g style="fill: #262626" transform="translate(523.973281 231.219684) scale(0.09 -0.09)">
       <defs>
        <path id="DejaVuSans-31" d="M 794 531 
L 1825 531 
L 1825 4091 
L 703 3866 
L 703 4441 
L 1819 4666 
L 2450 4666 
L 2450 531 
L 3481 531 
L 3481 0 
L 794 0 
L 794 531 
z
" transform="scale(0.015625)"/>
       </defs>
       <use xlink:href="#DejaVuSans-31"/>
       <use xlink:href="#DejaVuSans-30" transform="translate(63.623047 0)"/>
       <use xlink:href="#DejaVuSans-30" transform="translate(127.246094 0)"/>
       <use xlink:href="#DejaVuSans-25" transform="translate(190.869141 0)"/>
      </g>
     </g>
    </g>
   </g>
   <g id="patch_3">
    <path d="M 441.965108 335.884 
L 334.037427 156.678408 
L 183.372141 268.723964 
L 151.824683 425.964606 
L 331.209149 506.385047 
z
" clip-path="url(#pa40705dd06)" style="fill: #3498db; opacity: 0.15; stroke: #3498db; stroke-linejoin: miter"/>
   </g>
   <g id="patch_4">
    <path d="M 404.101343 335.884 
L 331.972624 163.033216 
L 221.902931 296.718222 
L 191.685409 397.004093 
L 322.693573 480.1768 
z
" clip-path="url(#pa40705dd06)" style="fill: #e74c3c; opacity: 0.15; stroke: #e74c3c; stroke-linejoin: miter"/>
   </g>
   <g id="patch_5">
    <path d="M 479.828872 335.884 
L 350.555845 105.839942 
L 152.769744 246.490021 
L 125.677626 444.961555 
L 342.875872 542.29153 
z
" clip-path="url(#pa40705dd06)" style="fill: #2ecc71; opacity: 0.25; stroke: #2ecc71; stroke-linejoin: miter"/>
   </g>
   <g id="line2d_12">
    <path d="M 441.965108 335.884 
L 334.037427 156.678408 
L 183.372141 268.723964 
L 151.824683 425.964606 
L 331.209149 506.385047 
L 441.965108 335.884 
" clip-path="url(#pa40705dd06)" style="fill: none; stroke: #3498db; stroke-width: 2.5; stroke-linecap: round"/>
    <defs>
     <path id="m60436773c7" d="M 0 4 
C 1.060812 4 2.078319 3.578535 2.828427 2.828427 
C 3.578535 2.078319 4 1.060812 4 0 
C 4 -1.060812 3.578535 -2.078319 2.828427 -2.828427 
C 2.078319 -3.578535 1.060812 -4 0 -4 
C -1.060812 -4 -2.078319 -3.578535 -2.828427 -2.828427 
C -3.578535 -2.078319 -4 -1.060812 -4 0 
C -4 1.060812 -3.578535 2.078319 -2.828427 2.828427 
C -2.078319 3.578535 -1.060812 4 0 4 
z
" style="stroke: #3498db"/>
    </defs>
    <g clip-path="url(#pa40705dd06)">
     <use xlink:href="#m60436773c7" x="441.965108" y="335.884" style="fill: #3498db; stroke: #3498db"/>
     <use xlink:href="#m60436773c7" x="334.037427" y="156.678408" style="fill: #3498db; stroke: #3498db"/>
     <use xlink:href="#m60436773c7" x="183.372141" y="268.723964" style="fill: #3498db; stroke: #3498db"/>
     <use xlink:href="#m60436773c7" x="151.824683" y="425.964606" style="fill: #3498db; stroke: #3498db"/>
     <use xlink:href="#m60436773c7" x="331.209149" y="506.385047" style="fill: #3498db; stroke: #3498db"/>
     <use xlink:href="#m60436773c7" x="441.965108" y="335.884" style="fill: #3498db; stroke: #3498db"/>
    </g>
   </g>
   <g id="line2d_13">
    <path d="M 404.101343 335.884 
L 331.972624 163.033216 
L 221.902931 296.718222 
L 191.685409 397.004093 
L 322.693573 480.1768 
L 404.101343 335.884 
" clip-path="url(#pa40705dd06)" style="fill: none; stroke: #e74c3c; stroke-width: 2.5; stroke-linecap: round"/>
    <defs>
     <path id="me1933ce371" d="M 0 4 
C 1.060812 4 2.078319 3.578535 2.828427 2.828427 
C 3.578535 2.078319 4 1.060812 4 0 
C 4 -1.060812 3.578535 -2.078319 2.828427 -2.828427 
C 2.078319 -3.578535 1.060812 -4 0 -4 
C -1.060812 -4 -2.078319 -3.578535 -2.828427 -2.828427 
C -3.578535 -2.078319 -4 -1.060812 -4 0 
C -4 1.060812 -3.578535 2.078319 -2.828427 2.828427 
C -2.078319 3.578535 -1.060812 4 0 4 
z
" style="stroke: #e74c3c"/>
    </defs>
    <g clip-path="url(#pa40705dd06)">
     <use xlink:href="#me1933ce371" x="404.101343" y="335.884" style="fill: #e74c3c; stroke: #e74c3c"/>
     <use xlink:href="#me1933ce371" x="331.972624" y="163.033216" style="fill: #e74c3c; stroke: #e74c3c"/>
     <use xlink:href="#me1933ce371" x="221.902931" y="296.718222" style="fill: #e74c3c; stroke: #e74c3c"/>
     <use xlink:href="#me1933ce371" x="191.685409" y="397.004093" style="fill: #e74c3c; stroke: #e74c3c"/>
     <use xlink:href="#me1933ce371" x="322.693573" y="480.1768" style="fill: #e74c3c; stroke: #e74c3c"/>
     <use xlink:href="#me1933ce371" x="404.101343" y="335.884" style="fill: #e74c3c; stroke: #e74c3c"/>
    </g>
   </g>
   <g id="line2d_14">
    <path d="M 479.828872 335.884 
L 350.555845 105.839942 
L 152.769744 246.490021 
L 125.677626 444.961555 
L 342.875872 542.29153 
L 479.828872 335.884 
" clip-path="url(#pa40705dd06)" style="fill: none; stroke: #2ecc71; stroke-width: 4; stroke-linecap: round"/>
    <defs>
     <path id="m0796d7b375" d="M 0 4 
C 1.060812 4 2.078319 3.578535 2.828427 2.828427 
C 3.578535 2.078319 4 1.060812 4 0 
C 4 -1.060812 3.578535 -2.078319 2.828427 -2.828427 
C 2.078319 -3.578535 1.060812 -4 0 -4 
C -1.060812 -4 -2.078319 -3.578535 -2.828427 -2.828427 
C -3.578535 -2.078319 -4 -1.060812 -4 0 
C -4 1.060812 -3.578535 2.078319 -2.828427 2.828427 
C -2.078319 3.578535 -1.060812 4 0 4 
z
" style="stroke: #2ecc71"/>
    </defs>
    <g clip-path="url(#pa40705dd06)">
     <use xlink:href="#m0796d7b375" x="479.828872" y="335.884" style="fill: #2ecc71; stroke: #2ecc71"/>
     <use xlink:href="#m0796d7b375" x="350.555845" y="105.839942" style="fill: #2ecc71; stroke: #2ecc71"/>
     <use xlink:href="#m0796d7b375" x="152.769744" y="246.490021" style="fill: #2ecc71; stroke: #2ecc71"/>
     <use xlink:href="#m0796d7b375" x="125.677626" y="444.961555" style="fill: #2ecc71; stroke: #2ecc71"/>
     <use xlink:href="#m0796d7b375" x="342.875872" y="542.29153" style="fill: #2ecc71; stroke: #2ecc71"/>
     <use xlink:href="#m0796d7b375" x="479.828872" y="335.884" style="fill: #2ecc71; stroke: #2ecc71"/>
    </g>
   </g>
   <g id="patch_6">
    <path d="M 544.42 335.884 
C 544.42 300.610458 537.471881 265.679907 523.973281 233.091403 
C 510.474681 200.5029 490.688113 170.890208 465.745952 145.948048 
C 440.803792 121.005887 411.1911 101.219319 378.602597 87.720719 
C 346.014093 74.222119 311.083542 67.274 275.81 67.274 
C 240.536458 67.274 205.605907 74.222119 173.017403 87.720719 
C 140.4289 101.219319 110.816208 121.005887 85.874048 145.948048 
C 60.931887 170.890208 41.145319 200.5029 27.646719 233.091403 
C 14.148119 265.679907 7.2 300.610458 7.2 335.884 
C 7.2 371.157542 14.148119 406.088093 27.646719 438.676597 
C 41.145319 471.2651 60.931887 500.877792 85.874048 525.819952 
C 110.816208 550.762113 140.4289 570.548681 173.017403 584.047281 
C 205.605907 597.545881 240.536458 604.494 275.81 604.494 
C 311.083542 604.494 346.014093 597.545881 378.602597 584.047281 
C 411.1911 570.548681 440.803792 550.762113 465.745952 525.819952 
C 490.688113 500.877792 510.474681 471.2651 523.973281 438.676597 
C 537.471881 406.088093 544.42 371.157542 544.42 335.884 
" style="fill: none; stroke: #cccccc; stroke-linejoin: miter; stroke-linecap: square"/>
   </g>
   <g id="text_12">
    <!-- Multi-Metric Performance Comparison -->
    <g style="fill: #262626" transform="translate(104.09 19.3575) scale(0.16 -0.16)">
     <defs>
      <path id="DejaVuSans-Bold-75" d="M 500 1363 
L 500 3500 
L 1625 3500 
L 1625 3150 
Q 1625 2866 1622 2436 
Q 1619 2006 1619 1863 
Q 1619 1441 1641 1255 
Q 1663 1069 1716 984 
Q 1784 875 1895 815 
Q 2006 756 2150 756 
Q 2500 756 2700 1025 
Q 2900 1294 2900 1772 
L 2900 3500 
L 4019 3500 
L 4019 0 
L 2900 0 
L 2900 506 
Q 2647 200 2364 54 
Q 2081 -91 1741 -91 
Q 1134 -91 817 281 
Q 500 653 500 1363 
z
" transform="scale(0.015625)"/>
      <path id="DejaVuSans-Bold-74" d="M 1759 4494 
L 1759 3500 
L 2913 3500 
L 2913 2700 
L 1759 2700 
L 1759 1216 
Q 1759 972 1856 886 
Q 1953 800 2241 800 
L 2816 800 
L 2816 0 
L 1856 0 
Q 1194 0 917 276 
Q 641 553 641 1216 
L 641 2700 
L 84 2700 
L 84 3500 
L 641 3500 
L 641 4494 
L 1759 4494 
z
" transform="scale(0.015625)"/>
      <path id="DejaVuSans-Bold-69" d="M 538 3500 
L 1656 3500 
L 1656 0 
L 538 0 
L 538 3500 
z
M 538 4863 
L 1656 4863 
L 1656 3950 
L 538 3950 
L 538 4863 
z
" transform="scale(0.015625)"/>
      <path id="DejaVuSans-Bold-2d" d="M 347 2297 
L 2309 2297 
L 2309 1388 
L 347 1388 
L 347 2297 
z
" transform="scale(0.015625)"/>
      <path id="DejaVuSans-Bold-72" d="M 3138 2547 
Q 2991 2616 2845 2648 
Q 2700 2681 2553 2681 
Q 2122 2681 1889 2404 
Q 1656 2128 1656 1613 
L 1656 0 
L 538 0 
L 538 3500 
L 1656 3500 
L 1656 2925 
Q 1872 3269 2151 3426 
Q 2431 3584 2822 3584 
Q 2878 3584 2943 3579 
Q 3009 3575 3134 3559 
L 3138 2547 
z
" transform="scale(0.015625)"/>
      <path id="DejaVuSans-Bold-20" transform="scale(0.015625)"/>
      <path id="DejaVuSans-Bold-50" d="M 588 4666 
L 2584 4666 
Q 3475 4666 3951 4270 
Q 4428 3875 4428 3144 
Q 4428 2409 3951 2014 
Q 3475 1619 2584 1619 
L 1791 1619 
L 1791 0 
L 588 0 
L 588 4666 
z
M 1791 3794 
L 1791 2491 
L 2456 2491 
Q 2806 2491 2997 2661 
Q 3188 2831 3188 3144 
Q 3188 3456 2997 3625 
Q 2806 3794 2456 3794 
L 1791 3794 
z
" transform="scale(0.015625)"/>
      <path id="DejaVuSans-Bold-66" d="M 2841 4863 
L 2841 4128 
L 2222 4128 
Q 1984 4128 1890 4042 
Q 1797 3956 1797 3744 
L 1797 3500 
L 2753 3500 
L 2753 2700 
L 1797 2700 
L 1797 0 
L 678 0 
L 678 2700 
L 122 2700 
L 122 3500 
L 678 3500 
L 678 3744 
Q 678 4316 997 4589 
Q 1316 4863 1984 4863 
L 2841 4863 
z
" transform="scale(0.015625)"/>
      <path id="DejaVuSans-Bold-6f" d="M 2203 2784 
Q 1831 2784 1636 2517 
Q 1441 2250 1441 1747 
Q 1441 1244 1636 976 
Q 1831 709 2203 709 
Q 2569 709 2762 976 
Q 2956 1244 2956 1747 
Q 2956 2250 2762 2517 
Q 2569 2784 2203 2784 
z
M 2203 3584 
Q 3106 3584 3614 3096 
Q 4122 2609 4122 1747 
Q 4122 884 3614 396 
Q 3106 -91 2203 -91 
Q 1297 -91 786 396 
Q 275 884 275 1747 
Q 275 2609 786 3096 
Q 1297 3584 2203 3584 
z
" transform="scale(0.015625)"/>
      <path id="DejaVuSans-Bold-6d" d="M 3781 2919 
Q 3994 3244 4286 3414 
Q 4578 3584 4928 3584 
Q 5531 3584 5847 3212 
Q 6163 2841 6163 2131 
L 6163 0 
L 5038 0 
L 5038 1825 
Q 5041 1866 5042 1909 
Q 5044 1953 5044 2034 
Q 5044 2406 4934 2573 
Q 4825 2741 4581 2741 
Q 4263 2741 4089 2478 
Q 3916 2216 3909 1719 
L 3909 0 
L 2784 0 
L 2784 1825 
Q 2784 2406 2684 2573 
Q 2584 2741 2328 2741 
Q 2006 2741 1831 2477 
Q 1656 2213 1656 1722 
L 1656 0 
L 531 0 
L 531 3500 
L 1656 3500 
L 1656 2988 
Q 1863 3284 2130 3434 
Q 2397 3584 2719 3584 
Q 3081 3584 3359 3409 
Q 3638 3234 3781 2919 
z
" transform="scale(0.015625)"/>
      <path id="DejaVuSans-Bold-70" d="M 1656 506 
L 1656 -1331 
L 538 -1331 
L 538 3500 
L 1656 3500 
L 1656 2988 
Q 1888 3294 2169 3439 
Q 2450 3584 2816 3584 
Q 3463 3584 3878 3070 
Q 4294 2556 4294 1747 
Q 4294 938 3878 423 
Q 3463 -91 2816 -91 
Q 2450 -91 2169 54 
Q 1888 200 1656 506 
z
M 2400 2772 
Q 2041 2772 1848 2508 
Q 1656 2244 1656 1747 
Q 1656 1250 1848 986 
Q 2041 722 2400 722 
Q 2759 722 2948 984 
Q 3138 1247 3138 1747 
Q 3138 2247 2948 2509 
Q 2759 2772 2400 2772 
z
" transform="scale(0.015625)"/>
      <path id="DejaVuSans-Bold-73" d="M 3272 3391 
L 3272 2541 
Q 2913 2691 2578 2766 
Q 2244 2841 1947 2841 
Q 1628 2841 1473 2761 
Q 1319 2681 1319 2516 
Q 1319 2381 1436 2309 
Q 1553 2238 1856 2203 
L 2053 2175 
Q 2913 2066 3209 1816 
Q 3506 1566 3506 1031 
Q 3506 472 3093 190 
Q 2681 -91 1863 -91 
Q 1516 -91 1145 -36 
Q 775 19 384 128 
L 384 978 
Q 719 816 1070 734 
Q 1422 653 1784 653 
Q 2113 653 2278 743 
Q 2444 834 2444 1013 
Q 2444 1163 2330 1236 
Q 2216 1309 1875 1350 
L 1678 1375 
Q 931 1469 631 1722 
Q 331 1975 331 2491 
Q 331 3047 712 3315 
Q 1094 3584 1881 3584 
Q 2191 3584 2531 3537 
Q 2872 3491 3272 3391 
z
" transform="scale(0.015625)"/>
     </defs>
     <use xlink:href="#DejaVuSans-Bold-4d"/>
     <use xlink:href="#DejaVuSans-Bold-75" transform="translate(99.511719 0)"/>
     <use xlink:href="#DejaVuSans-Bold-6c" transform="translate(170.703125 0)"/>
     <use xlink:href="#DejaVuSans-Bold-74" transform="translate(204.980469 0)"/>
     <use xlink:href="#DejaVuSans-Bold-69" transform="translate(252.783203 0)"/>
     <use xlink:href="#DejaVuSans-Bold-2d" transform="translate(287.060547 0)"/>
     <use xlink:href="#DejaVuSans-Bold-4d" transform="translate(328.564453 0)"/>
     <use xlink:href="#DejaVuSans-Bold-65" transform="translate(428.076172 0)"/>
     <use xlink:href="#DejaVuSans-Bold-74" transform="translate(495.898438 0)"/>
     <use xlink:href="#DejaVuSans-Bold-72" transform="translate(543.701172 0)"/>
     <use xlink:href="#DejaVuSans-Bold-69" transform="translate(593.017578 0)"/>
     <use xlink:href="#DejaVuSans-Bold-63" transform="translate(627.294922 0)"/>
     <use xlink:href="#DejaVuSans-Bold-20" transform="translate(686.572266 0)"/>
     <use xlink:href="#DejaVuSans-Bold-50" transform="translate(721.386719 0)"/>
     <use xlink:href="#DejaVuSans-Bold-65" transform="translate(794.677734 0)"/>
     <use xlink:href="#DejaVuSans-Bold-72" transform="translate(862.5 0)"/>
     <use xlink:href="#DejaVuSans-Bold-66" transform="translate(911.816406 0)"/>
     <use xlink:href="#DejaVuSans-Bold-6f" transform="translate(955.322266 0)"/>
     <use xlink:href="#DejaVuSans-Bold-72" transform="translate(1024.023438 0)"/>
     <use xlink:href="#DejaVuSans-Bold-6d" transform="translate(1073.339844 0)"/>
     <use xlink:href="#DejaVuSans-Bold-61" transform="translate(1177.539062 0)"/>
     <use xlink:href="#DejaVuSans-Bold-6e" transform="translate(1245.019531 0)"/>
     <use xlink:href="#DejaVuSans-Bold-63" transform="translate(1316.210938 0)"/>
     <use xlink:href="#DejaVuSans-Bold-65" transform="translate(1375.488281 0)"/>
     <use xlink:href="#DejaVuSans-Bold-20" transform="translate(1443.310547 0)"/>
     <use xlink:href="#DejaVuSans-Bold-43" transform="translate(1478.125 0)"/>
     <use xlink:href="#DejaVuSans-Bold-6f" transform="translate(1551.513672 0)"/>
     <use xlink:href="#DejaVuSans-Bold-6d" transform="translate(1620.214844 0)"/>
     <use xlink:href="#DejaVuSans-Bold-70" transform="translate(1724.414062 0)"/>
     <use xlink:href="#DejaVuSans-Bold-61" transform="translate(1795.996094 0)"/>
     <use xlink:href="#DejaVuSans-Bold-72" transform="translate(1863.476562 0)"/>
     <use xlink:href="#DejaVuSans-Bold-69" transform="translate(1912.792969 0)"/>
     <use xlink:href="#DejaVuSans-Bold-73" transform="translate(1947.070312 0)"/>
     <use xlink:href="#DejaVuSans-Bold-6f" transform="translate(2006.591797 0)"/>
     <use xlink:href="#DejaVuSans-Bold-6e" transform="translate(2075.292969 0)"/>
    </g>
    <!-- Radar View of Key Retrieval Metrics -->
    <g style="fill: #262626" transform="translate(113.68625 37.274) scale(0.16 -0.16)">
     <defs>
      <path id="DejaVuSans-Bold-64" d="M 2919 2988 
L 2919 4863 
L 4044 4863 
L 4044 0 
L 2919 0 
L 2919 506 
Q 2688 197 2409 53 
Q 2131 -91 1766 -91 
Q 1119 -91 703 423 
Q 288 938 288 1747 
Q 288 2556 703 3070 
Q 1119 3584 1766 3584 
Q 2128 3584 2408 3439 
Q 2688 3294 2919 2988 
z
M 2181 722 
Q 2541 722 2730 984 
Q 2919 1247 2919 1747 
Q 2919 2247 2730 2509 
Q 2541 2772 2181 2772 
Q 1825 2772 1636 2509 
Q 1447 2247 1447 1747 
Q 1447 1247 1636 984 
Q 1825 722 2181 722 
z
" transform="scale(0.015625)"/>
      <path id="DejaVuSans-Bold-56" d="M 31 4666 
L 1241 4666 
L 2478 1222 
L 3713 4666 
L 4922 4666 
L 3194 0 
L 1759 0 
L 31 4666 
z
" transform="scale(0.015625)"/>
      <path id="DejaVuSans-Bold-77" d="M 225 3500 
L 1313 3500 
L 1900 1088 
L 2491 3500 
L 3425 3500 
L 4013 1113 
L 4603 3500 
L 5691 3500 
L 4769 0 
L 3547 0 
L 2956 2406 
L 2369 0 
L 1147 0 
L 225 3500 
z
" transform="scale(0.015625)"/>
      <path id="DejaVuSans-Bold-4b" d="M 588 4666 
L 1791 4666 
L 1791 2963 
L 3525 4666 
L 4922 4666 
L 2675 2456 
L 5153 0 
L 3647 0 
L 1791 1838 
L 1791 0 
L 588 0 
L 588 4666 
z
" transform="scale(0.015625)"/>
      <path id="DejaVuSans-Bold-79" d="M 78 3500 
L 1197 3500 
L 2138 1125 
L 2938 3500 
L 4056 3500 
L 2584 -331 
Q 2363 -916 2067 -1148 
Q 1772 -1381 1288 -1381 
L 641 -1381 
L 641 -647 
L 991 -647 
Q 1275 -647 1404 -556 
Q 1534 -466 1606 -231 
L 1638 -134 
L 78 3500 
z
" transform="scale(0.015625)"/>
      <path id="DejaVuSans-Bold-76" d="M 97 3500 
L 1216 3500 
L 2088 1081 
L 2956 3500 
L 4078 3500 
L 2700 0 
L 1472 0 
L 97 3500 
z
" transform="scale(0.015625)"/>
     </defs>
     <use xlink:href="#DejaVuSans-Bold-52"/>
     <use xlink:href="#DejaVuSans-Bold-61" transform="translate(77.001953 0)"/>
     <use xlink:href="#DejaVuSans-Bold-64" transform="translate(144.482422 0)"/>
     <use xlink:href="#DejaVuSans-Bold-61" transform="translate(216.064453 0)"/>
     <use xlink:href="#DejaVuSans-Bold-72" transform="translate(283.544922 0)"/>
     <use xlink:href="#DejaVuSans-Bold-20" transform="translate(332.861328 0)"/>
     <use xlink:href="#DejaVuSans-Bold-56" transform="translate(367.675781 0)"/>
     <use xlink:href="#DejaVuSans-Bold-69" transform="translate(443.318359 0)"/>
     <use xlink:href="#DejaVuSans-Bold-65" transform="translate(477.595703 0)"/>
     <use xlink:href="#DejaVuSans-Bold-77" transform="translate(545.417969 0)"/>
     <use xlink:href="#DejaVuSans-Bold-20" transform="translate(637.800781 0)"/>
     <use xlink:href="#DejaVuSans-Bold-6f" transform="translate(672.615234 0)"/>
     <use xlink:href="#DejaVuSans-Bold-66" transform="translate(741.316406 0)"/>
     <use xlink:href="#DejaVuSans-Bold-20" transform="translate(784.822266 0)"/>
     <use xlink:href="#DejaVuSans-Bold-4b" transform="translate(819.636719 0)"/>
     <use xlink:href="#DejaVuSans-Bold-65" transform="translate(895.376953 0)"/>
     <use xlink:href="#DejaVuSans-Bold-79" transform="translate(963.199219 0)"/>
     <use xlink:href="#DejaVuSans-Bold-20" transform="translate(1028.384766 0)"/>
     <use xlink:href="#DejaVuSans-Bold-52" transform="translate(1063.199219 0)"/>
     <use xlink:href="#DejaVuSans-Bold-65" transform="translate(1140.201172 0)"/>
     <use xlink:href="#DejaVuSans-Bold-74" transform="translate(1208.023438 0)"/>
     <use xlink:href="#DejaVuSans-Bold-72" transform="translate(1255.826172 0)"/>
     <use xlink:href="#DejaVuSans-Bold-69" transform="translate(1305.142578 0)"/>
     <use xlink:href="#DejaVuSans-Bold-65" transform="translate(1339.419922 0)"/>
     <use xlink:href="#DejaVuSans-Bold-76" transform="translate(1407.242188 0)"/>
     <use xlink:href="#DejaVuSans-Bold-61" transform="translate(1472.427734 0)"/>
     <use xlink:href="#DejaVuSans-Bold-6c" transform="translate(1539.908203 0)"/>
     <use xlink:href="#DejaVuSans-Bold-20" transform="translate(1574.185547 0)"/>
     <use xlink:href="#DejaVuSans-Bold-4d" transform="translate(1609 0)"/>
     <use xlink:href="#DejaVuSans-Bold-65" transform="translate(1708.511719 0)"/>
     <use xlink:href="#DejaVuSans-Bold-74" transform="translate(1776.333984 0)"/>
     <use xlink:href="#DejaVuSans-Bold-72" transform="translate(1824.136719 0)"/>
     <use xlink:href="#DejaVuSans-Bold-69" transform="translate(1873.453125 0)"/>
     <use xlink:href="#DejaVuSans-Bold-63" transform="translate(1907.730469 0)"/>
     <use xlink:href="#DejaVuSans-Bold-73" transform="translate(1967.007812 0)"/>
    </g>
   </g>
   <g id="legend_1">
    <g id="patch_7">
     <path d="M 582.316625 72.789812 
L 699.886 72.789812 
Q 702.086 72.789812 702.086 70.589812 
L 702.086 23.252 
Q 702.086 21.052 699.886 21.052 
L 582.316625 21.052 
Q 580.116625 21.052 580.116625 23.252 
L 580.116625 70.589812 
Q 580.116625 72.789812 582.316625 72.789812 
z
" style="fill: #4d4d4d; opacity: 0.5; stroke: #4d4d4d; stroke-linejoin: miter"/>
    </g>
    <g id="patch_8">
     <path d="M 580.316625 70.789812 
L 697.886 70.789812 
Q 700.086 70.789812 700.086 68.589812 
L 700.086 21.252 
Q 700.086 19.052 697.886 19.052 
L 580.316625 19.052 
Q 578.116625 19.052 578.116625 21.252 
L 578.116625 68.589812 
Q 578.116625 70.789812 580.316625 70.789812 
z
" style="fill: #ffffff; stroke: #cccccc; stroke-linejoin: miter"/>
    </g>
    <g id="line2d_15">
     <path d="M 582.516625 27.960281 
L 593.516625 27.960281 
L 604.516625 27.960281 
" style="fill: none; stroke: #3498db; stroke-width: 2.5; stroke-linecap: round"/>
     <g>
      <use xlink:href="#m60436773c7" x="593.516625" y="27.960281" style="fill: #3498db; stroke: #3498db"/>
     </g>
    </g>
    <g id="text_13">
     <!-- BM25 -->
     <g style="fill: #262626" transform="translate(613.316625 31.810281) scale(0.11 -0.11)">
      <defs>
       <path id="DejaVuSans-42" d="M 1259 2228 
L 1259 519 
L 2272 519 
Q 2781 519 3026 730 
Q 3272 941 3272 1375 
Q 3272 1813 3026 2020 
Q 2781 2228 2272 2228 
L 1259 2228 
z
M 1259 4147 
L 1259 2741 
L 2194 2741 
Q 2656 2741 2882 2914 
Q 3109 3088 3109 3444 
Q 3109 3797 2882 3972 
Q 2656 4147 2194 4147 
L 1259 4147 
z
M 628 4666 
L 2241 4666 
Q 2963 4666 3353 4366 
Q 3744 4066 3744 3513 
Q 3744 3084 3544 2831 
Q 3344 2578 2956 2516 
Q 3422 2416 3680 2098 
Q 3938 1781 3938 1306 
Q 3938 681 3513 340 
Q 3088 0 2303 0 
L 628 0 
L 628 4666 
z
" transform="scale(0.015625)"/>
       <path id="DejaVuSans-4d" d="M 628 4666 
L 1569 4666 
L 2759 1491 
L 3956 4666 
L 4897 4666 
L 4897 0 
L 4281 0 
L 4281 4097 
L 3078 897 
L 2444 897 
L 1241 4097 
L 1241 0 
L 628 0 
L 628 4666 
z
" transform="scale(0.015625)"/>
       <path id="DejaVuSans-32" d="M 1228 531 
L 3431 531 
L 3431 0 
L 469 0 
L 469 531 
Q 828 903 1448 1529 
Q 2069 2156 2228 2338 
Q 2531 2678 2651 2914 
Q 2772 3150 2772 3378 
Q 2772 3750 2511 3984 
Q 2250 4219 1831 4219 
Q 1534 4219 1204 4116 
Q 875 4013 500 3803 
L 500 4441 
Q 881 4594 1212 4672 
Q 1544 4750 1819 4750 
Q 2544 4750 2975 4387 
Q 3406 4025 3406 3419 
Q 3406 3131 3298 2873 
Q 3191 2616 2906 2266 
Q 2828 2175 2409 1742 
Q 1991 1309 1228 531 
z
" transform="scale(0.015625)"/>
      </defs>
      <use xlink:href="#DejaVuSans-42"/>
      <use xlink:href="#DejaVuSans-4d" transform="translate(68.603516 0)"/>
      <use xlink:href="#DejaVuSans-32" transform="translate(154.882812 0)"/>
      <use xlink:href="#DejaVuSans-35" transform="translate(218.505859 0)"/>
     </g>
    </g>
    <g id="line2d_16">
     <path d="M 582.516625 44.106219 
L 593.516625 44.106219 
L 604.516625 44.106219 
" style="fill: none; stroke: #e74c3c; stroke-width: 2.5; stroke-linecap: round"/>
     <g>
      <use xlink:href="#me1933ce371" x="593.516625" y="44.106219" style="fill: #e74c3c; stroke: #e74c3c"/>
     </g>
    </g>
    <g id="text_14">
     <!-- Dense -->
     <g style="fill: #262626" transform="translate(613.316625 47.956219) scale(0.11 -0.11)">
      <defs>
       <path id="DejaVuSans-44" d="M 1259 4147 
L 1259 519 
L 2022 519 
Q 2988 519 3436 956 
Q 3884 1394 3884 2338 
Q 3884 3275 3436 3711 
Q 2988 4147 2022 4147 
L 1259 4147 
z
M 628 4666 
L 1925 4666 
Q 3281 4666 3915 4102 
Q 4550 3538 4550 2338 
Q 4550 1131 3912 565 
Q 3275 0 1925 0 
L 628 0 
L 628 4666 
z
" transform="scale(0.015625)"/>
       <path id="DejaVuSans-65" d="M 3597 1894 
L 3597 1613 
L 953 1613 
Q 991 1019 1311 708 
Q 1631 397 2203 397 
Q 2534 397 2845 478 
Q 3156 559 3463 722 
L 3463 178 
Q 3153 47 2828 -22 
Q 2503 -91 2169 -91 
Q 1331 -91 842 396 
Q 353 884 353 1716 
Q 353 2575 817 3079 
Q 1281 3584 2069 3584 
Q 2775 3584 3186 3129 
Q 3597 2675 3597 1894 
z
M 3022 2063 
Q 3016 2534 2758 2815 
Q 2500 3097 2075 3097 
Q 1594 3097 1305 2825 
Q 1016 2553 972 2059 
L 3022 2063 
z
" transform="scale(0.015625)"/>
       <path id="DejaVuSans-6e" d="M 3513 2113 
L 3513 0 
L 2938 0 
L 2938 2094 
Q 2938 2591 2744 2837 
Q 2550 3084 2163 3084 
Q 1697 3084 1428 2787 
Q 1159 2491 1159 1978 
L 1159 0 
L 581 0 
L 581 3500 
L 1159 3500 
L 1159 2956 
Q 1366 3272 1645 3428 
Q 1925 3584 2291 3584 
Q 2894 3584 3203 3211 
Q 3513 2838 3513 2113 
z
" transform="scale(0.015625)"/>
       <path id="DejaVuSans-73" d="M 2834 3397 
L 2834 2853 
Q 2591 2978 2328 3040 
Q 2066 3103 1784 3103 
Q 1356 3103 1142 2972 
Q 928 2841 928 2578 
Q 928 2378 1081 2264 
Q 1234 2150 1697 2047 
L 1894 2003 
Q 2506 1872 2764 1633 
Q 3022 1394 3022 966 
Q 3022 478 2636 193 
Q 2250 -91 1575 -91 
Q 1294 -91 989 -36 
Q 684 19 347 128 
L 347 722 
Q 666 556 975 473 
Q 1284 391 1588 391 
Q 1994 391 2212 530 
Q 2431 669 2431 922 
Q 2431 1156 2273 1281 
Q 2116 1406 1581 1522 
L 1381 1569 
Q 847 1681 609 1914 
Q 372 2147 372 2553 
Q 372 3047 722 3315 
Q 1072 3584 1716 3584 
Q 2034 3584 2315 3537 
Q 2597 3491 2834 3397 
z
" transform="scale(0.015625)"/>
      </defs>
      <use xlink:href="#DejaVuSans-44"/>
      <use xlink:href="#DejaVuSans-65" transform="translate(77.001953 0)"/>
      <use xlink:href="#DejaVuSans-6e" transform="translate(138.525391 0)"/>
      <use xlink:href="#DejaVuSans-73" transform="translate(201.904297 0)"/>
      <use xlink:href="#DejaVuSans-65" transform="translate(254.003906 0)"/>
     </g>
    </g>
    <g id="line2d_17">
     <path d="M 582.516625 60.252156 
L 593.516625 60.252156 
L 604.516625 60.252156 
" style="fill: none; stroke: #2ecc71; stroke-width: 4; stroke-linecap: round"/>
     <g>
      <use xlink:href="#m0796d7b375" x="593.516625" y="60.252156" style="fill: #2ecc71; stroke: #2ecc71"/>
     </g>
    </g>
    <g id="text_15">
     <!-- Hybrid (=0.5) -->
     <g style="fill: #262626" transform="translate(613.316625 64.102156) scale(0.11 -0.11)">
      <defs>
       <path id="DejaVuSans-48" d="M 628 4666 
L 1259 4666 
L 1259 2753 
L 3553 2753 
L 3553 4666 
L 4184 4666 
L 4184 0 
L 3553 0 
L 3553 2222 
L 1259 2222 
L 1259 0 
L 628 0 
L 628 4666 
z
" transform="scale(0.015625)"/>
       <path id="DejaVuSans-79" d="M 2059 -325 
Q 1816 -950 1584 -1140 
Q 1353 -1331 966 -1331 
L 506 -1331 
L 506 -850 
L 844 -850 
Q 1081 -850 1212 -737 
Q 1344 -625 1503 -206 
L 1606 56 
L 191 3500 
L 800 3500 
L 1894 763 
L 2988 3500 
L 3597 3500 
L 2059 -325 
z
" transform="scale(0.015625)"/>
       <path id="DejaVuSans-62" d="M 3116 1747 
Q 3116 2381 2855 2742 
Q 2594 3103 2138 3103 
Q 1681 3103 1420 2742 
Q 1159 2381 1159 1747 
Q 1159 1113 1420 752 
Q 1681 391 2138 391 
Q 2594 391 2855 752 
Q 3116 1113 3116 1747 
z
M 1159 2969 
Q 1341 3281 1617 3432 
Q 1894 3584 2278 3584 
Q 2916 3584 3314 3078 
Q 3713 2572 3713 1747 
Q 3713 922 3314 415 
Q 2916 -91 2278 -91 
Q 1894 -91 1617 61 
Q 1341 213 1159 525 
L 1159 0 
L 581 0 
L 581 4863 
L 1159 4863 
L 1159 2969 
z
" transform="scale(0.015625)"/>
       <path id="DejaVuSans-72" d="M 2631 2963 
Q 2534 3019 2420 3045 
Q 2306 3072 2169 3072 
Q 1681 3072 1420 2755 
Q 1159 2438 1159 1844 
L 1159 0 
L 581 0 
L 581 3500 
L 1159 3500 
L 1159 2956 
Q 1341 3275 1631 3429 
Q 1922 3584 2338 3584 
Q 2397 3584 2469 3576 
Q 2541 3569 2628 3553 
L 2631 2963 
z
" transform="scale(0.015625)"/>
       <path id="DejaVuSans-69" d="M 603 3500 
L 1178 3500 
L 1178 0 
L 603 0 
L 603 3500 
z
M 603 4863 
L 1178 4863 
L 1178 4134 
L 603 4134 
L 603 4863 
z
" transform="scale(0.015625)"/>
       <path id="DejaVuSans-64" d="M 2906 2969 
L 2906 4863 
L 3481 4863 
L 3481 0 
L 2906 0 
L 2906 525 
Q 2725 213 2448 61 
Q 2172 -91 1784 -91 
Q 1150 -91 751 415 
Q 353 922 353 1747 
Q 353 2572 751 3078 
Q 1150 3584 1784 3584 
Q 2172 3584 2448 3432 
Q 2725 3281 2906 2969 
z
M 947 1747 
Q 947 1113 1208 752 
Q 1469 391 1925 391 
Q 2381 391 2643 752 
Q 2906 1113 2906 1747 
Q 2906 2381 2643 2742 
Q 2381 3103 1925 3103 
Q 1469 3103 1208 2742 
Q 947 2381 947 1747 
z
" transform="scale(0.015625)"/>
       <path id="DejaVuSans-20" transform="scale(0.015625)"/>
       <path id="DejaVuSans-28" d="M 1984 4856 
Q 1566 4138 1362 3434 
Q 1159 2731 1159 2009 
Q 1159 1288 1364 580 
Q 1569 -128 1984 -844 
L 1484 -844 
Q 1016 -109 783 600 
Q 550 1309 550 2009 
Q 550 2706 781 3412 
Q 1013 4119 1484 4856 
L 1984 4856 
z
" transform="scale(0.015625)"/>
       <path id="DejaVuSans-3b1" d="M 2644 1628 
L 2506 2350 
Q 2366 3091 1809 3091 
Q 1391 3091 1200 2747 
Q 959 2316 959 1747 
Q 959 1059 1194 731 
Q 1431 397 1809 397 
Q 2228 397 2453 1063 
L 2644 1628 
z
M 2966 2584 
L 3275 3500 
L 3788 3500 
L 3147 1603 
L 3272 919 
Q 3300 766 3409 638 
Q 3538 488 3638 488 
L 3913 488 
L 3913 0 
L 3569 0 
Q 3275 0 3013 263 
Q 2884 394 2831 669 
Q 2688 322 2394 50 
Q 2256 -78 1809 -78 
Q 1075 -78 719 397 
Q 353 888 353 1747 
Q 353 2666 750 3097 
Q 1191 3578 1809 3578 
Q 2781 3578 2966 2584 
z
" transform="scale(0.015625)"/>
       <path id="DejaVuSans-3d" d="M 678 2906 
L 4684 2906 
L 4684 2381 
L 678 2381 
L 678 2906 
z
M 678 1631 
L 4684 1631 
L 4684 1100 
L 678 1100 
L 678 1631 
z
" transform="scale(0.015625)"/>
       <path id="DejaVuSans-2e" d="M 684 794 
L 1344 794 
L 1344 0 
L 684 0 
L 684 794 
z
" transform="scale(0.015625)"/>
       <path id="DejaVuSans-29" d="M 513 4856 
L 1013 4856 
Q 1481 4119 1714 3412 
Q 1947 2706 1947 2009 
Q 1947 1309 1714 600 
Q 1481 -109 1013 -844 
L 513 -844 
Q 928 -128 1133 580 
Q 1338 1288 1338 2009 
Q 1338 2731 1133 3434 
Q 928 4138 513 4856 
z
" transform="scale(0.015625)"/>
      </defs>
      <use xlink:href="#DejaVuSans-48"/>
      <use xlink:href="#DejaVuSans-79" transform="translate(75.195312 0)"/>
      <use xlink:href="#DejaVuSans-62" transform="translate(134.375 0)"/>
      <use xlink:href="#DejaVuSans-72" transform="translate(197.851562 0)"/>
      <use xlink:href="#DejaVuSans-69" transform="translate(238.964844 0)"/>
      <use xlink:href="#DejaVuSans-64" transform="translate(266.748047 0)"/>
      <use xlink:href="#DejaVuSans-20" transform="translate(330.224609 0)"/>
      <use xlink:href="#DejaVuSans-28" transform="translate(362.011719 0)"/>
      <use xlink:href="#DejaVuSans-3b1" transform="translate(401.025391 0)"/>
      <use xlink:href="#DejaVuSans-3d" transform="translate(466.943359 0)"/>
      <use xlink:href="#DejaVuSans-30" transform="translate(550.732422 0)"/>
      <use xlink:href="#DejaVuSans-2e" transform="translate(614.355469 0)"/>
      <use xlink:href="#DejaVuSans-35" transform="translate(646.142578 0)"/>
      <use xlink:href="#DejaVuSans-29" transform="translate(709.765625 0)"/>
     </g>
    </g>
   </g>
  </g>
 </g>
 <defs>
  <clipPath id="pa40705dd06">
   <path d="M 544.42 335.884 
C 544.42 300.610458 537.471881 265.679907 523.973281 233.091403 
C 510.474681 200.5029 490.688113 170.890208 465.745952 145.948048 
C 440.803792 121.005887 411.1911 101.219319 378.602597 87.720719 
C 346.014093 74.222119 311.083542 67.274 275.81 67.274 
C 240.536458 67.274 205.605907 74.222119 173.017403 87.720719 
C 140.4289 101.219319 110.816208 121.005887 85.874048 145.948048 
C 60.931887 170.890208 41.145319 200.5029 27.646719 233.091403 
C 14.148119 265.679907 7.2 300.610458 7.2 335.884 
C 7.2 371.157542 14.148119 406.088093 27.646719 438.676597 
C 41.145319 471.2651 60.931887 500.877792 85.874048 525.819952 
C 110.816208 550.762113 140.4289 570.548681 173.017403 584.047281 
C 205.605907 597.545881 240.536458 604.494 275.81 604.494 
C 311.083542 604.494 346.014093 597.545881 378.602597 584.047281 
C 411.1911 570.548681 440.803792 550.762113 465.745952 525.819952 
C 490.688113 500.877792 510.474681 471.2651 523.973281 438.676597 
C 537.471881 406.088093 544.42 371.157542 544.42 335.884 
M 275.81 335.884 
C 275.81 335.884 275.81 335.884 275.81 335.884 
C 275.81 335.884 275.81 335.884 275.81 335.884 
C 275.81 335.884 275.81 335.884 275.81 335.884 
C 275.81 335.884 275.81 335.884 275.81 335.884 
C 275.81 335.884 275.81 335.884 275.81 335.884 
C 275.81 335.884 275.81 335.884 275.81 335.884 
C 275.81 335.884 275.81 335.884 275.81 335.884 
C 275.81 335.884 275.81 335.884 275.81 335.884 
C 275.81 335.884 275.81 335.884 275.81 335.884 
C 275.81 335.884 275.81 335.884 275.81 335.884 
C 275.81 335.884 275.81 335.884 275.81 335.884 
C 275.81 335.884 275.81 335.884 275.81 335.884 
C 275.81 335.884 275.81 335.884 275.81 335.884 
C 275.81 335.884 275.81 335.884 275.81 335.884 
C 275.81 335.884 275.81 335.884 275.81 335.884 
C 275.81 335.884 275.81 335.884 275.81 335.884 
z
"/>
  </clipPath>
 </defs>
</svg>
